<svg xmlns="http://www.w3.org/2000/svg" width="17.804" height="14.127" viewBox="0 0 17.804 14.127">
  <path id="_2771a4196155593cc42249e8188e08dc" data-name="2771a4196155593cc42249e8188e08dc" d="M18.585,4.069a14.774,14.774,0,0,0-6.241.912,2.627,2.627,0,0,0-.948.808,2.619,2.619,0,0,0-.948-.808,14.83,14.83,0,0,0-6.241-.912A1.771,1.771,0,0,0,2.494,5.847v9.438a1.764,1.764,0,0,0,1.743,1.778c1.488.025,5.139.178,6.9,1.037a.582.582,0,0,0,.251.059.575.575,0,0,0,.26-.06c1.765-.859,5.416-1.012,6.9-1.037A1.764,1.764,0,0,0,20.3,15.284V5.846A1.771,1.771,0,0,0,18.585,4.069ZM3.671,15.284V5.846a.593.593,0,0,1,.569-.593,13.738,13.738,0,0,1,5.69.8A1.579,1.579,0,0,1,10.8,7.489V16.7a25.4,25.4,0,0,0-6.55-.83.586.586,0,0,1-.578-.587Zm15.441,0a.586.586,0,0,1-.578.593,25.5,25.5,0,0,0-6.55.82V7.489a1.58,1.58,0,0,1,.867-1.438,12.356,12.356,0,0,1,4.882-.812c.3,0,.573,0,.81.014a.593.593,0,0,1,.57.593Z" transform="translate(-2.494 -4.032)" fill="#211f27"/>
</svg>
