<svg xmlns="http://www.w3.org/2000/svg" width="14.964" height="14.438" viewBox="0 0 14.964 14.438">
  <path id="_000cbc31af4e005e3c23daf3790eba00" data-name="000cbc31af4e005e3c23daf3790eba00" d="M15.6,7.7H9.684a1.851,1.851,0,1,1,0-3.7H15.6a1.851,1.851,0,1,1,0,3.7ZM9.684,4.871a.98.98,0,1,0,0,1.96H15.6a.98.98,0,1,0,0-1.96ZM15.6,17.938H9.684a1.851,1.851,0,1,1,0-3.7H15.6a1.851,1.851,0,1,1,0,3.7ZM9.684,15.106a.98.98,0,1,0,0,1.96H15.6a.98.98,0,1,0,0-1.96ZM15.6,12.929H9.684a1.851,1.851,0,1,1,0-3.7H15.6a1.851,1.851,0,1,1,0,3.7ZM9.684,10.1a.98.98,0,1,0,0,1.96H15.6a.98.98,0,1,0,0-1.96Zm-4.6-2.4H4.863a1.851,1.851,0,1,1,0-3.7h.219a1.851,1.851,0,1,1,0,3.7ZM4.863,4.871a.98.98,0,1,0,0,1.96h.219a.98.98,0,1,0,0-1.96Zm.219,13.066H4.863a1.851,1.851,0,1,1,0-3.7h.219a1.851,1.851,0,1,1,0,3.7Zm-.219-2.831a.98.98,0,1,0,0,1.96h.219a.98.98,0,1,0,0-1.96Zm.219-2.178H4.863a1.851,1.851,0,1,1,0-3.7h.219a1.851,1.851,0,1,1,0,3.7ZM4.863,10.1a.98.98,0,1,0,0,1.96h.219a.98.98,0,1,0,0-1.96Z" transform="translate(-2.75 -3.75)" fill="#72d6d9" stroke="#72d6d9" stroke-width="0.5"/>
</svg>
