<svg xmlns="http://www.w3.org/2000/svg" width="20.498" height="20.503" viewBox="0 0 20.498 20.503">
  <path id="f93e92c74c7ad5bf50796583dd7fc241" d="M12.856,13.276,10.5,15.623a1.029,1.029,0,1,0,1.456,1.456l4.1-4.1a1.06,1.06,0,0,0,0-1.456l-4.1-4.1A1.029,1.029,0,0,0,10.5,8.878l2.358,2.347H3.025a1.025,1.025,0,0,0,0,2.05ZM12.251,2A10.251,10.251,0,0,0,3.025,7.689a1.031,1.031,0,0,0,1.845.923,8.242,8.242,0,1,1,.041,7.278,1.031,1.031,0,0,0-1.845.923A10.251,10.251,0,1,0,12.251,2Z" transform="translate(-2 -2)" fill="#18161e"/>
</svg>
