<svg xmlns="http://www.w3.org/2000/svg" width="19.864" height="21.075" viewBox="0 0 19.864 21.075">
  <g id="c07282caf5b948df0db9e3cc936d5227" transform="translate(0.102 -0.028)">
    <path id="Path_30" data-name="Path 30" d="M18.629,6.222,18,5.122A1.948,1.948,0,0,0,15.338,4.4h0a1.939,1.939,0,0,1-2.657-.69,1.865,1.865,0,0,1-.261-.932h0a1.948,1.948,0,0,0-1.948-2H9.2A1.939,1.939,0,0,0,7.257,2.726h0a1.948,1.948,0,0,1-1.948,1.92,1.864,1.864,0,0,1-.932-.261h0A1.948,1.948,0,0,0,1.72,5.1l-.68,1.119a1.948,1.948,0,0,0,.708,2.657h0a1.948,1.948,0,0,1,0,3.374h0A1.939,1.939,0,0,0,1.039,14.9h0l.643,1.109a1.948,1.948,0,0,0,2.657.755h0a1.93,1.93,0,0,1,2.647.708,1.864,1.864,0,0,1,.261.932h0A1.948,1.948,0,0,0,9.2,20.354h1.277a1.948,1.948,0,0,0,1.948-1.939h0a1.939,1.939,0,0,1,1.948-1.948,1.985,1.985,0,0,1,.932.261h0a1.948,1.948,0,0,0,2.657-.708h0l.671-1.119a1.939,1.939,0,0,0-.708-2.657h0a1.939,1.939,0,0,1-.708-2.657,1.911,1.911,0,0,1,.708-.708h0a1.948,1.948,0,0,0,.708-2.647h0Z" transform="translate(0 0)" fill="none" stroke="#211f27" stroke-linecap="round" stroke-linejoin="round" stroke-width="1.5" fill-rule="evenodd"/>
    <circle id="Ellipse_12" data-name="Ellipse 12" cx="2.684" cy="2.684" r="2.684" transform="translate(7.154 7.881)" fill="none" stroke="#211f27" stroke-linecap="round" stroke-linejoin="round" stroke-width="1.5"/>
  </g>
</svg>
