<svg xmlns="http://www.w3.org/2000/svg" width="36" height="36" viewBox="0 0 36 36">
  <g id="Layer_2" data-name="Layer 2" transform="translate(-3 -3)">
    <path id="save" d="M37.24,14.42,27.58,4.76A6,6,0,0,0,23.34,3H9A6,6,0,0,0,3,9V33a6,6,0,0,0,6,6H33a6,6,0,0,0,6-6V18.66a6,6,0,0,0-1.76-4.24ZM17,35V31h8v4Zm18-2a2,2,0,0,1-2,2H29V29a2,2,0,0,0-2-2H15a2,2,0,0,0-2,2v6H9a2,2,0,0,1-2-2V9A2,2,0,0,1,9,7h4V17a2,2,0,0,0,2,2h8a2,2,0,1,0,0-4H17V7h6.34a2.1,2.1,0,0,1,1.42.58l9.66,9.66A2,2,0,0,1,35,18.66Z" transform="translate(0 0)" fill="#211f27"/>
  </g>
</svg>
