<svg xmlns="http://www.w3.org/2000/svg" xmlns:xlink="http://www.w3.org/1999/xlink" width="37.902" height="38.012" viewBox="0 0 37.902 38.012">
  <defs>
    <filter id="fe2df171891038b33e9624c27e96e367" x="0" y="0" width="37.902" height="38.012" filterUnits="userSpaceOnUse">
      <feOffset dy="3" input="SourceAlpha"/>
      <feGaussianBlur stdDeviation="3" result="blur"/>
      <feFlood flood-opacity="0.161"/>
      <feComposite operator="in" in2="blur"/>
      <feComposite in="SourceGraphic"/>
    </filter>
  </defs>
  <g transform="matrix(1, 0, 0, 1, 0, 0)" filter="url(#fe2df171891038b33e9624c27e96e367)">
    <path id="fe2df171891038b33e9624c27e96e367-2" data-name="fe2df171891038b33e9624c27e96e367" d="M15.71,12.71a6,6,0,1,0-7.42,0,10,10,0,0,0-6.22,8.18,1.006,1.006,0,1,0,2,.22,8,8,0,0,1,15.9,0,1,1,0,0,0,1,.89h.11a1,1,0,0,0,.88-1.1,10,10,0,0,0-6.25-8.19ZM12,12a4,4,0,1,1,4-4A4,4,0,0,1,12,12Z" transform="translate(6.94 4.01)" fill="#18161e"/>
  </g>
</svg>
