<svg xmlns="http://www.w3.org/2000/svg" width="46.969" height="32.869" viewBox="0 0 46.969 32.869">
  <path id="_1c366e41d68907f1ea32d9c8cd2571d1" data-name="1c366e41d68907f1ea32d9c8cd2571d1" d="M41.92,5H20.391a7.043,7.043,0,0,0-4.977,2.066L2.689,19.767a2.348,2.348,0,0,0,0,3.334L15.413,35.8a7.043,7.043,0,0,0,4.977,2.066H41.92a7.043,7.043,0,0,0,7.043-7.043V12.043A7.043,7.043,0,0,0,41.92,5Zm2.348,25.825a2.348,2.348,0,0,1-2.348,2.348H20.391a2.465,2.465,0,0,1-1.667-.681L7.666,21.434,18.724,10.376A2.465,2.465,0,0,1,20.391,9.7H41.92a2.348,2.348,0,0,1,2.348,2.348ZM36.543,15.072a2.348,2.348,0,0,0-3.334,0l-3.029,3.052-3.029-3.052a2.357,2.357,0,0,0-3.334,3.334l3.052,3.029-3.052,3.029A2.357,2.357,0,1,0,27.152,27.8l3.029-3.052L33.209,27.8a2.357,2.357,0,1,0,3.334-3.334l-3.052-3.029,3.052-3.029a2.348,2.348,0,0,0,0-3.334Z" transform="translate(-1.994 -5)" fill="#211f27"/>
</svg>
