<svg xmlns="http://www.w3.org/2000/svg" width="16.679" height="23.833" viewBox="0 0 16.679 23.833">
  <path id="c839c07daa330db315a65863143c41b9" d="M18.105,2H8.574A3.574,3.574,0,0,0,5,5.574V24.636a1.191,1.191,0,0,0,1.787,1.037l6.553-3.789,6.553,3.789a1.191,1.191,0,0,0,1.787-1.037V5.574A3.574,3.574,0,0,0,18.105,2ZM19.3,22.575l-5.361-3.1a1.191,1.191,0,0,0-1.191,0l-5.361,3.1v-17A1.191,1.191,0,0,1,8.574,4.383h9.531A1.191,1.191,0,0,1,19.3,5.574Z" transform="translate(-5 -2)" fill="#211f27"/>
</svg>
