<svg id="XMLID_101_" xmlns="http://www.w3.org/2000/svg" width="22.02" height="22.02" viewBox="0 0 23.868 22.008">
  <path id="XMLID_101_2" data-name="XMLID_101_" d="M29.353,14.53H9.515a2.015,2.015,0,1,1,0-4.03H29.353a2.015,2.015,0,1,1,0,4.03ZM31.368,21.5a2.011,2.011,0,0,0-2.015-2.015H9.515a2.015,2.015,0,1,0,0,4.03H29.353A2.011,2.011,0,0,0,31.368,21.5Zm0,8.989a2.011,2.011,0,0,0-2.015-2.015H9.515a2.015,2.015,0,0,0,0,4.03H29.353A2.011,2.011,0,0,0,31.368,30.493Z" transform="translate(-7.5 -10.5)" fill="#fff"/>
</svg>
