<svg xmlns="http://www.w3.org/2000/svg" width="12.669" height="16.521" viewBox="0 0 12.669 16.521">
  <path id="da086273b974cb595139babd4da17772" d="M18.267,9.223,18,17.277a2.653,2.653,0,0,1-2.661,2.566H10.284A2.653,2.653,0,0,1,7.624,17.28L7.357,9.223a.666.666,0,0,1,1.33-.044l.266,8.056a1.33,1.33,0,0,0,1.33,1.279H15.34a1.33,1.33,0,0,0,1.33-1.282l.266-8.053a.666.666,0,0,1,1.33.044Zm.88-2.68a.665.665,0,0,1-.665.665H7.143a.665.665,0,0,1,0-1.33H9.205a.849.849,0,0,0,.847-.764,1.99,1.99,0,0,1,1.985-1.792h1.55a1.99,1.99,0,0,1,1.985,1.792.849.849,0,0,0,.847.764h2.062a.665.665,0,0,1,.665.665Zm-7.94-.665h3.212a2.2,2.2,0,0,1-.17-.628.665.665,0,0,0-.661-.6h-1.55a.665.665,0,0,0-.661.6,2.2,2.2,0,0,1-.17.628Zm.67,10.079V10.292a.665.665,0,0,0-1.33,0v5.667a.665.665,0,0,0,1.33,0Zm3.2,0V10.292a.665.665,0,0,0-1.33,0v5.667a.665.665,0,0,0,1.33,0Z" transform="translate(-6.478 -3.322)" fill="#ec3e3e"/>
</svg>
