<svg xmlns="http://www.w3.org/2000/svg" width="17.472" height="15.725" viewBox="0 0 17.472 15.725">
  <path id="f26816a39368640a1ae1b380d178e2ad" d="M17.725,11.893v-1.9a6.989,6.989,0,0,0-13.977,0v1.9A2.621,2.621,0,0,0,2,14.357V16.1a2.621,2.621,0,0,0,2.621,2.621H7.242a.874.874,0,0,0,.874-.874V12.609a.874.874,0,0,0-.874-.874H5.494V9.989a5.242,5.242,0,1,1,10.483,0v1.747H14.23a.874.874,0,0,0-.874.874v5.242a.874.874,0,0,0,.874.874h2.621A2.621,2.621,0,0,0,19.472,16.1V14.357a2.621,2.621,0,0,0-1.747-2.464ZM6.368,13.483v3.494H4.621a.874.874,0,0,1-.874-.874V14.357a.874.874,0,0,1,.874-.874ZM17.725,16.1a.874.874,0,0,1-.874.874H15.1V13.483h1.747a.874.874,0,0,1,.874.874Z" transform="translate(-2 -3)" fill="#211f27"/>
</svg>
