<svg xmlns="http://www.w3.org/2000/svg" width="20.878" height="20.878" viewBox="0 0 20.878 20.878">
  <path id="_223ed637876b0981285cd3161e3297dd" data-name="223ed637876b0981285cd3161e3297dd" d="M21.834,14.527a1.044,1.044,0,0,0-1.044,1.044v4.176a1.044,1.044,0,0,1-1.044,1.044H5.132a1.044,1.044,0,0,1-1.044-1.044V15.571a1.044,1.044,0,1,0-2.088,0v4.176a3.132,3.132,0,0,0,3.132,3.132H19.747a3.132,3.132,0,0,0,3.132-3.132V15.571A1.044,1.044,0,0,0,21.834,14.527ZM11.7,16.312a1.044,1.044,0,0,0,.344.219.981.981,0,0,0,.793,0,1.044,1.044,0,0,0,.344-.219l4.176-4.176a1.048,1.048,0,0,0-1.482-1.482l-2.391,2.4V3.044a1.044,1.044,0,0,0-2.088,0V13.055L9,10.654a1.048,1.048,0,0,0-1.482,1.482Z" transform="translate(-2 -2)"/>
</svg>
