<svg xmlns="http://www.w3.org/2000/svg" width="29.826" height="20.878" viewBox="0 0 29.826 20.878">
  <path id="_822613be6622cbf6c99ea4f774a9d553" data-name="822613be6622cbf6c99ea4f774a9d553" d="M18.4,11.965H3.491a1.491,1.491,0,1,0,0,2.983H18.4a1.491,1.491,0,0,0,0-2.983ZM18.4,6H3.491a1.491,1.491,0,1,0,0,2.983H18.4A1.491,1.491,0,0,0,18.4,6Zm7.457,11.931V13.457a1.491,1.491,0,0,0-2.983,0v4.474H18.4a1.491,1.491,0,1,0,0,2.983h4.474v4.474a1.491,1.491,0,0,0,2.983,0V20.913h4.474a1.491,1.491,0,0,0,0-2.983ZM3.491,20.913h8.948a1.491,1.491,0,1,0,0-2.983H3.491a1.491,1.491,0,0,0,0,2.983Z" transform="translate(-2 -6)"/>
</svg>
