<svg xmlns="http://www.w3.org/2000/svg" width="18.536" height="21" viewBox="0 0 18.536 21">
  <g id="c8c4054587cc749acf9a7752d7ca48cc" transform="translate(-0.5 -0.5)">
    <path id="Path_115" data-name="Path 115" d="M462.518,500.45H473.8a1.989,1.989,0,0,1,2.131,1.806v10.437A1.989,1.989,0,0,1,473.8,514.5H461.531a1.989,1.989,0,0,1-2.131-1.806v-8.313" transform="translate(-457.9 -494)" fill="none" stroke="#211f27" stroke-linecap="round" stroke-linejoin="round" stroke-width="2"/>
    <line id="Line_40" data-name="Line 40" x2="14.026" transform="translate(2.45 1.5)" fill="none" stroke="#211f27" stroke-linecap="round" stroke-linejoin="round" stroke-width="2"/>
    <path id="Path_116" data-name="Path 116" d="M464.38,508.59V506a1.17,1.17,0,0,1,1.76-1l2.25,1.29,2.25,1.3a1.18,1.18,0,0,1,0,2l-2.25,1.3-2.25,1.3a1.18,1.18,0,0,1-1.76-1Z" transform="translate(-457.012 -495.117)" fill="#211f27"/>
  </g>
</svg>
