<svg xmlns="http://www.w3.org/2000/svg" width="36.999" height="36.999" viewBox="0 0 36.999 36.999">
  <g id="_4cd6a62e595dcd48b817208907459794" data-name="4cd6a62e595dcd48b817208907459794" transform="translate(0.3)">
    <path id="Path_137" data-name="Path 137" d="M14.942,28.86a3.286,3.286,0,0,1-.925-.185A1.983,1.983,0,0,1,13,26.918V10.638a1.983,1.983,0,0,1,1.017-1.757,2.01,2.01,0,0,1,2.035.092l3.33,2.312a.936.936,0,0,1-1.017,1.572l-3.33-2.312h-.092a.091.091,0,0,0-.092.092v16.28a.091.091,0,0,0,.092.092h.092l11.84-8.14v-.185l-4.162-2.867a.936.936,0,0,1,1.017-1.572l4.162,2.867a1.9,1.9,0,0,1,0,3.145L16.052,28.4a1.245,1.245,0,0,1-1.11.462Z" transform="translate(-0.998 -0.649)" fill="#fff"/>
    <path id="Path_138" data-name="Path 138" d="M18.2,37A18.5,18.5,0,1,1,36.7,18.5,18.554,18.554,0,0,1,18.2,37Zm0-35.149A16.65,16.65,0,1,0,34.849,18.5,16.7,16.7,0,0,0,18.2,1.85Z" fill="#fff"/>
  </g>
</svg>
