<svg xmlns="http://www.w3.org/2000/svg" width="19.209" height="15.242" viewBox="0 0 19.209 15.242">
  <path id="_2771a4196155593cc42249e8188e08dc" data-name="2771a4196155593cc42249e8188e08dc" d="M19.855,4.072a15.94,15.94,0,0,0-6.734.984,2.834,2.834,0,0,0-1.023.872,2.825,2.825,0,0,0-1.023-.872,16,16,0,0,0-6.734-.984A1.911,1.911,0,0,0,2.494,5.99V16.173a1.9,1.9,0,0,0,1.88,1.918c1.605.027,5.544.192,7.449,1.119a.628.628,0,0,0,.271.064.62.62,0,0,0,.28-.065c1.9-.927,5.844-1.092,7.449-1.119a1.9,1.9,0,0,0,1.88-1.918V5.989A1.911,1.911,0,0,0,19.855,4.072ZM3.764,16.172V5.989a.639.639,0,0,1,.614-.639,14.822,14.822,0,0,1,6.139.861,1.7,1.7,0,0,1,.937,1.551V17.7a27.4,27.4,0,0,0-7.066-.9A.632.632,0,0,1,3.764,16.172Zm16.66,0a.632.632,0,0,1-.624.639,27.508,27.508,0,0,0-7.066.885V7.761a1.7,1.7,0,0,1,.935-1.551,13.331,13.331,0,0,1,5.267-.876c.322,0,.618,0,.874.015a.639.639,0,0,1,.615.639Z" transform="translate(-2.494 -4.032)" fill="#211f27"/>
</svg>
