<svg xmlns="http://www.w3.org/2000/svg" width="21.003" height="21.004" viewBox="0 0 21.003 21.004">
  <path id="e3228845564499c0c3d5ea1e284d89eb" d="M15.5,19.919a.683.683,0,0,1-.352-.09L10.01,17.124,5.486,19.558a1.521,1.521,0,0,1-2.077-.64,1.64,1.64,0,0,1-.158-1l.88-5.194L.453,9a1.6,1.6,0,0,1,0-2.227,1.492,1.492,0,0,1,.88-.451l5.043-.766L8.619.883a1.515,1.515,0,0,1,2.754,0l2.253,4.689,5.06.775a1.525,1.525,0,0,1,1.016.624,1.649,1.649,0,0,1-.162,2.081l-3.661,3.679.51,2.8a.783.783,0,0,1-.625.9.758.758,0,0,1-.88-.613l-.519-2.8a1.621,1.621,0,0,1,.44-1.407l3.67-3.706-5.06-.785a1.519,1.519,0,0,1-1.153-.9L10.01,1.551,7.73,6.294a1.519,1.519,0,0,1-1.153.9l-5.043.766,3.643,3.7a1.593,1.593,0,0,1,.44,1.389l-.88,5.194,4.523-2.426a1.473,1.473,0,0,1,1.443,0l5.13,2.705a.791.791,0,0,1,.388.88.77.77,0,0,1-.74.6Z" transform="translate(0.5 0.5)" fill="#211f27" stroke="#211f27" stroke-width="1"/>
</svg>
